<svg xmlns="http://www.w3.org/2000/svg" xmlns:xlink="http://www.w3.org/1999/xlink" width="52" height="78" viewBox="0 0 52 78">
  <defs>
    <filter id="Rectangle_18" x="-9" y="-6" width="70" height="96" filterUnits="userSpaceOnUse">
      <feOffset dy="3" input="SourceAlpha"/>
      <feGaussianBlur stdDeviation="3" result="blur"/>
      <feFlood flood-color="#806b3c" flood-opacity="0.161"/>
      <feComposite operator="in" in2="blur"/>
      <feComposite in="SourceGraphic"/>
    </filter>
    <clipPath id="clip-path">
      <g transform="matrix(1, 0, 0, 1, 0, 0)" filter="url(#Rectangle_18)">
        <rect id="Rectangle_18-2" data-name="Rectangle 18" width="52" height="78" transform="translate(875 1417.41)" fill="#fff"/>
      </g>
    </clipPath>
  </defs>
  <g id="Mask_Group_2" data-name="Mask Group 2" transform="translate(-875 -1417.406)" clip-path="url(#clip-path)">
    <g id="woman" transform="translate(875 1429.907)">
      <path id="Path_5" data-name="Path 5" d="M81.252,89.69a24.127,24.127,0,0,1-6.24-5.14c-1.439-1.565-1.187-5.258-.923-9.167.344-5.071.734-10.817-1.994-15.13a9.532,9.532,0,0,0-6.2-4.667,10.586,10.586,0,0,0-7.091,1.425c-2.088-1.738-10.382-7.676-18.263-.119-4.188,4.016-3.729,11.418-3.324,17.947.265,4.266.514,8.295-.788,9.711A24.043,24.043,0,0,1,30.2,89.688a.831.831,0,0,0,.36,1.581h7.433a14.3,14.3,0,0,0-3.682,9.587.831.831,0,0,0,1.662,0,12.712,12.712,0,0,1,12.7-12.7h1.892a5.224,5.224,0,0,0,10.25,0h1.971a12.712,12.712,0,0,1,12.7,12.7.831.831,0,0,0,1.662,0,14.3,14.3,0,0,0-3.68-9.587h7.432a.831.831,0,0,0,.361-1.579ZM42.649,76.5c-.028,0-.054.006-.082.006a1.873,1.873,0,0,1-.142-3.741c-.016.291-.035.58-.035.873A15.783,15.783,0,0,0,42.649,76.5Zm1.4-2.863a14.025,14.025,0,0,1,.489-3.69,13.344,13.344,0,0,0,6.2.554,12.977,12.977,0,0,0,8.437-4.8A12.2,12.2,0,0,0,66.6,68.966a13.914,13.914,0,0,1,.8,4.669c0,7.092-5.237,12.861-11.674,12.861S44.049,80.727,44.049,73.636Zm24.983-.872a1.873,1.873,0,0,1-.154,3.741c-.028,0-.054-.007-.081-.008a15.783,15.783,0,0,0,.261-2.861C69.059,73.344,69.048,73.053,69.033,72.764ZM55.684,90.72a3.564,3.564,0,0,1-3.527-3.093,12.237,12.237,0,0,0,7.05.026A3.562,3.562,0,0,1,55.684,90.72Zm16-1.114a14.285,14.285,0,0,0-8.909-3.11h-.871A14.337,14.337,0,0,0,68.4,78.131a3.539,3.539,0,1,0,.475-7.045h-.029a15.391,15.391,0,0,0-.888-3.222.831.831,0,0,0-.734-.522,10.419,10.419,0,0,1-7.514-3.493.82.82,0,0,0-.7-.292.83.83,0,0,0-.645.39A11.112,11.112,0,0,1,50.5,68.854a11.57,11.57,0,0,1-6.173-.766.831.831,0,0,0-1.112.5,15.47,15.47,0,0,0-.624,2.5h-.026a3.54,3.54,0,1,0,.475,7.044,14.337,14.337,0,0,0,6.5,8.365h-.872a14.285,14.285,0,0,0-8.909,3.11H33.367a32.09,32.09,0,0,0,4.29-3.932c1.782-1.937,1.523-6.109,1.224-10.94C38.5,68.565,38.064,61.573,41.7,58.09c7.9-7.574,16.11.215,16.454.549a.832.832,0,0,0,1.063.081,9.294,9.294,0,0,1,6.382-1.5A7.953,7.953,0,0,1,70.69,61.14c2.437,3.854,2.067,9.313,1.74,14.13-.3,4.464-.564,8.315,1.358,10.405a32.087,32.087,0,0,0,4.29,3.932Z" transform="translate(-29.722 -49.689)"/>
      <path id="Path_6" data-name="Path 6" d="M116.286,335.914a.831.831,0,0,0-.831.831v5.1a.831.831,0,0,0,1.662,0v-5.1A.831.831,0,0,0,116.286,335.914Z" transform="translate(-102.79 -290.683)"/>
      <path id="Path_7" data-name="Path 7" d="M285.58,335.914a.831.831,0,0,0-.831.831v5.1a.831.831,0,0,0,1.662,0v-5.1A.831.831,0,0,0,285.58,335.914Z" transform="translate(-247.075 -290.683)"/>
      <path id="Path_8" data-name="Path 8" d="M157.371,196.13a2.438,2.438,0,0,0,2.436-2.436.831.831,0,1,0-1.662,0,.774.774,0,0,1-1.548,0,.831.831,0,0,0-1.662,0A2.438,2.438,0,0,0,157.371,196.13Z" transform="translate(-136.438 -168.764)"/>
      <path id="Path_9" data-name="Path 9" d="M225.978,196.13a2.438,2.438,0,0,0,2.436-2.436.831.831,0,1,0-1.662,0,.774.774,0,1,1-1.548,0,.831.831,0,1,0-1.662,0A2.438,2.438,0,0,0,225.978,196.13Z" transform="translate(-194.91 -168.764)"/>
      <path id="Path_10" data-name="Path 10" d="M346.99,33.341a.831.831,0,0,0,.831-.831V30.565a.831.831,0,0,0-1.662,0v1.947a.831.831,0,0,0,.831.829Z" transform="translate(-299.412 -29.734)"/>
      <path id="Path_11" data-name="Path 11" d="M346.99,65.187a.831.831,0,0,0-.831.831v1.947a.831.831,0,0,0,1.662,0V66.018a.831.831,0,0,0-.831-.831Z" transform="translate(-299.412 -59.949)"/>
      <path id="Path_12" data-name="Path 12" d="M322.682,55.707h1.947a.831.831,0,1,0,0-1.662h-1.947a.831.831,0,1,0,0,1.662Z" transform="translate(-278.695 -50.454)"/>
      <path id="Path_13" data-name="Path 13" d="M358.122,55.707h1.947a.831.831,0,1,0,0-1.662h-1.947a.831.831,0,0,0,0,1.662Z" transform="translate(-308.9 -50.454)"/>
      <path id="Path_14" data-name="Path 14" d="M49.685,61.182a.831.831,0,0,0,.831-.831V59.3a.831.831,0,0,0-1.662,0v1.055A.831.831,0,0,0,49.685,61.182Z" transform="translate(-46.028 -54.221)"/>
      <path id="Path_15" data-name="Path 15" d="M49.685,89.559a.831.831,0,0,0-.831.831v1.055a.831.831,0,1,0,1.662,0V90.39A.831.831,0,0,0,49.685,89.559Z" transform="translate(-46.028 -80.721)"/>
      <path id="Path_16" data-name="Path 16" d="M30.565,79.244H31.62a.831.831,0,1,0,0-1.662H30.565a.831.831,0,1,0,0,1.662Z" transform="translate(-29.732 -70.513)"/>
      <path id="Path_17" data-name="Path 17" d="M60.831,78.413a.831.831,0,0,0,.831.831h1.057a.831.831,0,1,0,0-1.662H61.662a.831.831,0,0,0-.831.831Z" transform="translate(-56.235 -70.513)"/>
    </g>
  </g>
</svg>
