<svg id="Layer_3" enable-background="new 0 0 64 64" height="512" viewBox="0 0 64 64" width="512" xmlns="http://www.w3.org/2000/svg"><path d="m2 54h50v4h-50z" fill="#abadb0"/><path d="m4 22h46v32h-46z" fill="#e6e6e6"/><path d="m38.172 54h5.657v2h-5.657z" fill="#7b7e82" transform="matrix(.707 -.707 .707 .707 -26.882 45.101)"/><path d="m54 52.172h2v5.657h-2z" fill="#7b7e82" transform="matrix(.707 -.707 .707 .707 -22.782 55)"/><path d="m11 2h32v8h-32z" fill="#957552"/><path d="m11 2h29v8h-29z" fill="#c69c6d"/><path d="m8 34h16v20h-16z" fill="#a67c52"/><path d="m8 34h13v20h-13z" fill="#c69c6d"/><path d="m28 30h18v18h-18z" fill="#80afbe"/><path d="m28 30h15v18h-15z" fill="#aae9fd"/><path d="m47 26c-2.761 0-5-2.239-5-5v-7h10v7c0 2.761-2.239 5-5 5z" fill="#5f9747"/><path d="m45.5 25.746c2.023-.64 3.5-2.51 3.5-4.746v-7h-7v7c0 2.235 1.477 4.105 3.5 4.746z" fill="#7ec95f"/><path d="m37 26c-2.761 0-5-2.239-5-5v-7h10v7c0 2.761-2.239 5-5 5z" fill="#5f9747"/><path d="m35.5 25.746c2.023-.64 3.5-2.51 3.5-4.746v-7h-7v7c0 2.235 1.477 4.105 3.5 4.746z" fill="#7ec95f"/><path d="m27 26c-2.761 0-5-2.239-5-5v-7h10v7c0 2.761-2.239 5-5 5z" fill="#5f9747"/><path d="m25.5 25.746c2.023-.64 3.5-2.51 3.5-4.746v-7h-7v7c0 2.235 1.477 4.105 3.5 4.746z" fill="#7ec95f"/><path d="m17 26c-2.761 0-5-2.239-5-5v-7h10v7c0 2.761-2.239 5-5 5z" fill="#5f9747"/><path d="m15.5 25.746c2.023-.64 3.5-2.51 3.5-4.746v-7h-7v7c0 2.235 1.477 4.105 3.5 4.746z" fill="#7ec95f"/><path d="m7 26c-2.761 0-5-2.239-5-5v-7h10v7c0 2.761-2.239 5-5 5z" fill="#5f9747"/><path d="m5.5 25.746c2.023-.641 3.5-2.511 3.5-4.746v-7h-7v7c0 2.235 1.477 4.105 3.5 4.746z" fill="#7ec95f"/><circle cx="59" cy="59" fill="#8d9299" r="3"/><circle cx="37" cy="59" fill="#8d9299" r="3"/><path d="m51 55 4-4-15-15c0 5.122 2.035 10.035 5.657 13.657z" fill="#bcc3cc"/><path d="m45 55-4-4 15-15c0 5.122-2.035 10.035-5.657 13.657z" fill="#a4a8ad"/><path d="m14 10h2v4h-2z" fill="#c69c6d"/><path d="m38 10h2v4h-2z" fill="#c69c6d"/><path d="m14 5h26v2h-26z" fill="#fff"/><path d="m11 41h2v6h-2z" fill="#e6e6e6"/></svg>